<svg width="478" height="118" viewBox="0 0 478 118" fill="none" xmlns="http://www.w3.org/2000/svg">
<path d="M119.33 0H144.14L33.97 117.32H9.15997L119.33 0Z" fill="white"/>
<path d="M34.64 63.91L0 0H94.75L77.77 18.1H31.29L47.82 49.83L34.64 63.91Z" fill="#00ABE4"/>
<path d="M118.12 53.72L152.76 117.63H58.01L74.99 99.53H121.48L104.94 67.79L118.12 53.72Z" fill="#00ABE4"/>
<path d="M195.87 22.7089L194.024 33.3826H199.642L198.157 41.9297H192.539L188.848 63.7989L188.727 65.0829C188.62 66.8753 189.369 67.7982 190.974 67.8517C191.429 67.8784 192.339 67.8116 193.703 67.651L192.7 76.5592C191.041 77.228 189.115 77.5624 186.921 77.5624C183.685 77.5089 181.25 76.3452 179.618 74.0714C177.987 71.7975 177.358 68.6944 177.732 64.7619L181.464 41.9297H176.569L178.053 33.3826H182.909L184.795 22.7089H195.87Z" fill="white"/>
<path d="M215.733 37.2348C218.488 34.0514 221.524 32.4864 224.841 32.5399C228.025 32.5934 230.459 33.7705 232.145 36.0711C233.83 38.3717 234.673 41.5685 234.673 45.6615L234.472 49.4735L229.897 76.8H218.782L223.317 49.3531L223.517 46.9857C223.624 43.722 222.461 42.0902 220.026 42.0902C218.261 42.0367 216.549 42.973 214.89 44.899L209.312 76.8H198.197L208.911 15.165H219.986L215.733 37.2348Z" fill="white"/>
<path d="M260.996 32.5801C265.383 32.6871 268.807 34.1718 271.268 37.0342C273.729 39.8966 275.08 43.7354 275.321 48.5506V51.3996C274.973 59.7995 272.954 66.3135 269.262 70.9415C265.597 75.5427 260.809 77.763 254.897 77.6025C251.446 77.5223 248.597 76.5993 246.349 74.8338C244.102 73.0414 242.484 70.5669 241.494 67.4103C240.531 64.2536 240.264 60.6288 240.692 56.5359L240.932 54.369C241.708 47.5474 243.888 42.1838 247.473 38.2781C251.058 34.3457 255.565 32.4463 260.996 32.5801V32.5801ZM251.606 61.0702C251.606 65.6982 253.024 68.0924 255.86 68.2529C259.712 68.467 262.213 65.5243 263.363 59.425L263.805 56.5359C264.179 52.6837 264.366 50.2092 264.366 49.1124C264.366 44.5112 262.909 42.1169 259.993 41.9297C257.879 41.8227 256.14 42.7991 254.776 44.8589C253.412 46.9188 252.542 49.9016 252.168 53.8072C251.793 57.6862 251.606 60.1072 251.606 61.0702V61.0702Z" fill="white"/>
<path d="M296.027 33.3425L295.304 37.4354C298.301 34.0915 301.711 32.4731 305.537 32.5801C309.683 32.6871 312.385 34.6399 313.642 38.4386C316.933 34.4259 320.598 32.4597 324.637 32.54C327.687 32.5935 330.014 33.7438 331.619 35.9909C333.251 38.2112 334.054 41.3813 334.027 45.501L333.826 49.1926L329.252 76.8H318.137L322.751 49.1124L322.952 46.8653C323.166 43.6551 322.096 42.05 319.742 42.05C317.842 42.05 316.104 43.3475 314.525 45.9424L314.284 47.8685L309.269 76.8H298.194L302.768 49.1926L303.009 46.9455C303.223 43.6819 302.166 42.05 299.839 42.05C298.715 42.05 297.752 42.3711 296.95 43.0131C296.174 43.6284 295.452 44.364 294.783 45.2201L289.285 76.8H278.21L285.754 33.3826L296.027 33.3425Z" fill="white"/>
<path d="M358.344 76.8C358.13 75.8904 358.023 74.7669 358.023 73.4293C355.562 76.2382 352.753 77.6426 349.596 77.6426C346.252 77.5891 343.564 76.3586 341.531 73.951C339.524 71.5433 338.601 68.5472 338.762 64.9625C339.003 60.3613 340.795 56.7632 344.139 54.1684C347.483 51.5467 351.977 50.2359 357.622 50.2359H360.872L361.393 46.7048L361.514 44.899C361.514 42.5717 360.578 41.408 358.705 41.408C356.11 41.3277 354.532 42.9863 353.97 46.3837L342.935 46.464C343.176 42.3443 344.888 38.987 348.071 36.3921C351.255 33.7705 355.134 32.4864 359.708 32.5399C364.015 32.6469 367.305 34.0113 369.579 36.6329C371.88 39.2278 372.816 42.6653 372.388 46.9455L368.857 69.0153L368.697 71.1421C368.59 73.0147 368.777 74.6599 369.258 76.0777L369.218 76.8L358.344 76.8ZM352.646 68.7746C354.599 68.8281 356.418 67.972 358.103 66.2065L360.069 57.0174H357.662C355.522 57.1244 353.796 57.8467 352.485 59.1842C351.174 60.5218 350.385 62.2071 350.118 64.2402L350.078 65.7651C350.078 66.6211 350.292 67.33 350.72 67.8918C351.174 68.4536 351.817 68.7478 352.646 68.7746H352.646Z" fill="white"/>
<path d="M389.814 67.3702H406.186L404.541 76.8H374.727L376.051 69.1759L396.596 42.8526H380.986L382.672 33.3826H411.844L410.56 40.766L389.814 67.3702Z" fill="white"/>
<path d="M434.312 32.5801C438.699 32.6871 442.123 34.1718 444.584 37.0342C447.045 39.8966 448.396 43.7354 448.637 48.5506V51.3996C448.289 59.7995 446.27 66.3135 442.578 70.9415C438.913 75.5427 434.124 77.763 428.212 77.6025C424.762 77.5223 421.912 76.5993 419.665 74.8338C417.418 73.0414 415.8 70.5669 414.81 67.4103C413.847 64.2536 413.579 60.6288 414.007 56.5359L414.248 54.369C415.024 47.5474 417.204 42.1838 420.789 38.2781C424.374 34.3457 428.881 32.4463 434.312 32.5801V32.5801ZM424.922 61.0702C424.922 65.6982 426.34 68.0924 429.175 68.2529C433.028 68.467 435.529 65.5243 436.679 59.425L437.121 56.5359C437.495 52.6837 437.682 50.2092 437.682 49.1124C437.682 44.5112 436.224 42.1169 433.309 41.9297C431.195 41.8227 429.456 42.7991 428.092 44.8589C426.728 46.9188 425.858 49.9016 425.484 53.8072C425.109 57.6862 424.922 60.1072 424.922 61.0702V61.0702Z" fill="white"/>
<path d="M473.757 22.7089L471.911 33.3826H477.528L476.044 41.9297H470.426L466.734 63.7989L466.614 65.0829C466.507 66.8753 467.256 67.7982 468.861 67.8517C469.316 67.8784 470.225 67.8116 471.59 67.651L470.586 76.5592C468.928 77.228 467.002 77.5624 464.808 77.5624C461.571 77.5089 459.137 76.3452 457.505 74.0714C455.873 71.7975 455.245 68.6944 455.619 64.7619L459.351 41.9297H454.455L455.94 33.3826H460.796L462.681 22.7089H473.757Z" fill="white"/>
<path d="M182.599 98.8982H177.449L176.251 105.84H174.318L177.039 90.1212H184.995L184.693 91.8269H178.68L177.741 97.2033H182.901L182.599 98.8982Z" fill="white"/>
<path d="M190.656 95.9402C190.346 95.8754 190.069 95.843 189.825 95.843C188.882 95.843 188.104 96.3864 187.493 97.4732L186.046 105.84H184.178L186.208 94.1589L188.011 94.1481L187.752 95.3464C188.436 94.3748 189.206 93.8998 190.062 93.9214C190.235 93.9286 190.501 93.9825 190.861 94.0833L190.656 95.9402Z" fill="white"/>
<path d="M191.355 99.4812C191.592 97.8043 192.165 96.4548 193.071 95.4328C193.985 94.4035 195.137 93.9069 196.526 93.9429C197.39 93.9645 198.109 94.2164 198.685 94.6986C199.261 95.1737 199.671 95.8322 199.916 96.6743C200.168 97.5164 200.236 98.4448 200.121 99.4596L199.992 100.561C199.754 102.231 199.178 103.573 198.264 104.588C197.35 105.602 196.202 106.092 194.82 106.056C193.957 106.034 193.237 105.786 192.661 105.311C192.085 104.836 191.672 104.177 191.42 103.335C191.175 102.493 191.11 101.568 191.225 100.561L191.355 99.4812ZM193.028 101.349C193.007 102.313 193.154 103.062 193.471 103.594C193.795 104.127 194.281 104.408 194.928 104.437C195.763 104.473 196.454 104.177 197.001 103.551C197.548 102.918 197.915 101.971 198.102 100.712L198.264 99.4488L198.318 98.6715C198.34 97.6999 198.185 96.9478 197.854 96.4152C197.53 95.8826 197.048 95.6019 196.407 95.5731C195.558 95.5371 194.849 95.8898 194.281 96.6311C193.719 97.3652 193.356 98.3872 193.19 99.6971L193.061 100.766L193.028 101.349Z" fill="white"/>
<path d="M205.238 94.1481L204.99 95.422C205.839 94.4215 206.804 93.9285 207.883 93.9429C208.625 93.9501 209.211 94.202 209.643 94.6986C210.082 95.1953 210.33 95.8718 210.388 96.7283C210.417 97.2249 210.406 97.7107 210.356 98.1857L209.082 105.84H207.225L208.51 98.1533L208.553 97.3005C208.553 96.1993 208.099 95.6379 207.192 95.6163C206.451 95.5947 205.76 96.0157 205.12 96.8794L204.796 97.3436L203.328 105.84H201.46L203.489 94.1589L205.238 94.1481Z" fill="white"/>
<path d="M216.909 91.3303L216.412 94.1589H218.129L217.859 95.7027H216.153L214.922 102.968L214.901 103.4C214.872 104.012 215.091 104.318 215.559 104.318C215.732 104.325 215.991 104.289 216.337 104.21L216.175 105.84C215.772 105.984 215.365 106.049 214.955 106.034C214.3 106.034 213.807 105.764 213.476 105.225C213.145 104.685 213.022 103.922 213.109 102.936L214.296 95.7027H212.558L212.839 94.1589H214.555L215.052 91.3303H216.909Z" fill="white"/>
<path d="M222.857 99.9778H218.517L218.809 98.3477H223.149L222.857 99.9778Z" fill="white"/>
<path d="M232.671 98.5743H227.284L226.312 104.145H232.595L232.293 105.84H224.088L226.809 90.1212H234.927L234.625 91.8269H228.45L227.564 96.8794H232.962L232.671 98.5743Z" fill="white"/>
<path d="M238.349 94.1481L238.101 95.422C238.95 94.4215 239.915 93.9285 240.994 93.9429C241.736 93.9501 242.322 94.202 242.754 94.6986C243.193 95.1953 243.441 95.8718 243.499 96.7283C243.528 97.2249 243.517 97.7107 243.467 98.1857L242.193 105.84H240.336L241.621 98.1533L241.664 97.3005C241.664 96.1993 241.21 95.6379 240.303 95.6163C239.562 95.5947 238.871 96.0157 238.231 96.8794L237.907 97.3436L236.438 105.84H234.571L236.6 94.1589L238.349 94.1481Z" fill="white"/>
<path d="M250.354 93.9537C251.427 93.9825 252.226 94.4359 252.751 95.314L253.874 89.2575H255.742L252.87 105.84H251.175L251.38 104.588C250.61 105.595 249.685 106.085 248.605 106.056C247.634 106.042 246.882 105.664 246.349 104.922C245.824 104.181 245.561 103.119 245.561 101.738C245.561 101.097 245.644 100.248 245.809 99.1897C245.975 98.1317 246.23 97.2357 246.576 96.5015C247.396 94.7526 248.656 93.9033 250.354 93.9537V93.9537ZM247.418 102.202C247.454 103.634 248.048 104.361 249.199 104.383C249.609 104.397 250.002 104.296 250.376 104.08C250.75 103.857 251.128 103.479 251.51 102.947L252.524 97.0305C252.165 96.1309 251.564 95.6631 250.721 95.6271C249.016 95.5407 247.987 96.793 247.634 99.3841C247.461 100.651 247.389 101.59 247.418 102.202V102.202Z" fill="white"/>
<path d="M261.096 105.84L263.817 90.1212L267.336 90.132C268.999 90.1679 270.24 90.7833 271.061 91.9781C271.881 93.1656 272.169 94.7274 271.925 96.6635L271.547 99.1897C271.223 101.342 270.464 102.99 269.269 104.134C268.074 105.279 266.555 105.847 264.713 105.84L261.096 105.84ZM265.458 91.8269L263.32 104.145L264.735 104.156C266.073 104.17 267.16 103.771 267.995 102.957C268.83 102.137 269.373 100.903 269.625 99.2545L270.025 96.6203C270.096 96.0517 270.125 95.4867 270.111 94.9253C270.075 93.9681 269.816 93.2232 269.334 92.6906C268.859 92.1508 268.175 91.8665 267.282 91.8377L265.458 91.8269Z" fill="white"/>
<path d="M277.54 106.056C276.23 106.042 275.251 105.57 274.603 104.642C273.956 103.713 273.718 102.446 273.891 100.842L274.031 99.6863C274.254 97.8726 274.805 96.4548 275.683 95.4328C276.568 94.4035 277.691 93.9069 279.051 93.9429C280.16 93.9717 280.991 94.3532 281.545 95.0873C282.107 95.8142 282.373 96.8398 282.344 98.1641L282.247 99.4596L282.085 100.572L275.823 100.561C275.73 101.209 275.687 101.716 275.694 102.083C275.708 102.81 275.888 103.382 276.234 103.8C276.579 104.21 277.072 104.419 277.713 104.426C278.173 104.44 278.627 104.35 279.073 104.156C279.526 103.954 280.001 103.605 280.498 103.109L281.372 104.329C280.912 104.933 280.343 105.376 279.667 105.656C278.99 105.937 278.281 106.07 277.54 106.056H277.54ZM278.933 95.5731C277.659 95.5155 276.766 96.2856 276.255 97.8834L275.964 98.9306L280.444 98.9414L280.498 98.6607C280.541 98.3297 280.563 97.9842 280.563 97.6243C280.534 96.3144 279.991 95.6307 278.933 95.5731H278.933Z" fill="white"/>
<path d="M286.733 102.914L290.242 94.1588H292.206L287.014 105.84H285.621L284.045 94.1588H285.88L286.733 102.914Z" fill="white"/>
<path d="M296.69 106.056C295.38 106.042 294.401 105.57 293.753 104.642C293.106 103.713 292.868 102.446 293.041 100.842L293.181 99.6863C293.404 97.8726 293.955 96.4548 294.833 95.4328C295.718 94.4035 296.841 93.9069 298.201 93.9429C299.31 93.9717 300.141 94.3532 300.695 95.0873C301.257 95.8142 301.523 96.8398 301.494 98.1641L301.397 99.4596L301.235 100.572L294.973 100.561C294.88 101.209 294.837 101.716 294.844 102.083C294.858 102.81 295.038 103.382 295.384 103.8C295.729 104.21 296.222 104.419 296.863 104.426C297.323 104.44 297.777 104.35 298.223 104.156C298.676 103.954 299.151 103.605 299.648 103.109L300.522 104.329C300.062 104.933 299.493 105.376 298.817 105.656C298.14 105.937 297.431 106.07 296.69 106.056H296.69ZM298.083 95.5731C296.809 95.5155 295.916 96.2856 295.405 97.8834L295.114 98.9306L299.594 98.9414L299.648 98.6607C299.691 98.3297 299.713 97.9842 299.713 97.6243C299.684 96.3144 299.141 95.6307 298.083 95.5731H298.083Z" fill="white"/>
<path d="M304.495 105.84H302.628L305.51 89.2575H307.378L304.495 105.84Z" fill="white"/>
<path d="M308.263 99.4812C308.501 97.8043 309.073 96.4548 309.98 95.4328C310.894 94.4035 312.045 93.9069 313.434 93.9429C314.298 93.9645 315.018 94.2164 315.593 94.6986C316.169 95.1737 316.58 95.8322 316.824 96.6743C317.076 97.5164 317.144 98.4448 317.029 99.4596L316.9 100.561C316.662 102.231 316.087 103.573 315.172 104.588C314.258 105.602 313.11 106.092 311.729 106.056C310.865 106.034 310.145 105.786 309.569 105.311C308.994 104.836 308.58 104.177 308.328 103.335C308.083 102.493 308.018 101.568 308.134 100.561L308.263 99.4812ZM309.936 101.349C309.915 102.313 310.062 103.062 310.379 103.594C310.703 104.127 311.189 104.408 311.837 104.437C312.671 104.473 313.362 104.177 313.909 103.551C314.456 102.918 314.823 101.971 315.011 100.712L315.172 99.4488L315.226 98.6715C315.248 97.6999 315.093 96.9478 314.762 96.4152C314.438 95.8826 313.956 95.6019 313.316 95.5731C312.466 95.5371 311.757 95.8898 311.189 96.6311C310.627 97.3652 310.264 98.3872 310.098 99.6971L309.969 100.766L309.936 101.349Z" fill="white"/>
<path d="M323.01 106.067C321.902 106.038 321.067 105.588 320.506 104.717L319.458 110.331H317.602L320.408 94.1588L322.082 94.148L321.866 95.4543C322.658 94.4251 323.604 93.9177 324.705 93.9321C325.742 93.9465 326.515 94.3352 327.026 95.0981C327.537 95.8538 327.771 96.9046 327.728 98.2505C327.706 98.8766 327.624 99.6935 327.48 100.701C327.336 101.709 327.124 102.554 326.843 103.238C326.051 105.174 324.774 106.117 323.01 106.067V106.067ZM325.871 97.7971C325.763 96.372 325.151 95.6487 324.036 95.6271C323.187 95.6055 322.431 96.0625 321.769 96.9982L320.722 103.098C321.067 103.947 321.664 104.393 322.514 104.437C323.356 104.473 324.047 104.174 324.586 103.54C325.126 102.907 325.483 101.921 325.655 100.582C325.828 99.2437 325.9 98.3153 325.871 97.7971V97.7971Z" fill="white"/>
<path d="M333.418 106.056C332.108 106.042 331.129 105.57 330.481 104.642C329.833 103.713 329.596 102.446 329.769 100.842L329.909 99.6863C330.132 97.8726 330.683 96.4548 331.561 95.4328C332.446 94.4035 333.569 93.9069 334.929 93.9429C336.037 93.9717 336.869 94.3532 337.423 95.0873C337.984 95.8142 338.251 96.8398 338.222 98.1641L338.125 99.4596L337.963 100.572L331.701 100.561C331.607 101.209 331.564 101.716 331.571 102.083C331.586 102.81 331.766 103.382 332.111 103.8C332.457 104.21 332.95 104.419 333.59 104.426C334.051 104.44 334.504 104.35 334.951 104.156C335.404 103.954 335.879 103.605 336.376 103.109L337.25 104.329C336.789 104.933 336.221 105.376 335.544 105.656C334.868 105.937 334.159 106.07 333.418 106.056H333.418ZM334.81 95.5731C333.536 95.5155 332.644 96.2856 332.133 97.8834L331.841 98.9306L336.322 98.9414L336.376 98.6607C336.419 98.3297 336.44 97.9842 336.44 97.6243C336.412 96.3144 335.868 95.6307 334.81 95.5731H334.81Z" fill="white"/>
<path d="M345.682 95.9402C345.372 95.8754 345.095 95.843 344.85 95.843C343.908 95.843 343.13 96.3864 342.518 97.4732L341.072 105.84H339.204L341.234 94.1589L343.037 94.1481L342.778 95.3464C343.461 94.3748 344.231 93.8998 345.088 93.9214C345.261 93.9286 345.527 93.9825 345.887 94.0833L345.682 95.9402Z" fill="white"/>
</svg>
